<svg xmlns="http://www.w3.org/2000/svg" version="1.1" xmlns:xlink="http://www.w3.org/1999/xlink" xmlns:svgjs="http://svgjs.dev/svgjs" width="1000" height="623" viewBox="0 0 1000 623"><g transform="matrix(1,0,0,1,-0.6060606060606233,0.2522267206477409)"><svg viewBox="0 0 396 247" data-background-color="#ffffff" preserveAspectRatio="xMidYMid meet" height="623" width="1000" xmlns="http://www.w3.org/2000/svg" xmlns:xlink="http://www.w3.org/1999/xlink"><g id="tight-bounds" transform="matrix(1,0,0,1,0.2400000000000091,-0.09999999999999432)"><svg viewBox="0 0 395.52 247.2" height="247.2" width="395.52"><g><svg></svg></g><g><svg viewBox="0 0 395.52 247.2" height="247.2" width="395.52"><g transform="matrix(1,0,0,1,75.54432,87.43453663557415)"><svg viewBox="0 0 244.43135999999998 72.33092672885171" height="72.33092672885171" width="244.43135999999998"><g><svg viewBox="0 0 244.43135999999998 72.33092672885171" height="72.33092672885171" width="244.43135999999998"><g><svg viewBox="0 0 244.43135999999998 72.33092672885171" height="72.33092672885171" width="244.43135999999998"><g><svg viewBox="0 0 244.43135999999998 72.33092672885171" height="72.33092672885171" width="244.43135999999998"><g id="textblocktransform"><svg viewBox="0 0 244.43135999999998 72.33092672885171" height="72.33092672885171" width="244.43135999999998" id="textblock"><g><svg viewBox="0 0 244.43135999999998 72.33092672885171" height="72.33092672885171" width="244.43135999999998"><g transform="matrix(1,0,0,1,0,0)"><svg width="244.43135999999998" viewBox="1.8 -35.5 155.44 46" height="72.33092672885171" data-palette-color="#000000"><path d="M17.9-0.3Q14.8 0.5 11.9 0.5L11.9 0.5Q9.2 0.5 7.4-0.1L7.4-0.1Q4.45-1.1 3.13-3.18 1.8-5.25 1.8-9L1.8-9 1.8-15.4Q1.8-20.35 4.4-22.93 7-25.5 11.1-25.5L11.1-25.5Q14.35-25.5 17.8-23.9L17.8-23.9 16.3-19.15Q13.9-20.1 12-20.1L12-20.1Q9.75-20.1 8.53-18.85 7.3-17.6 7.3-15.7L7.3-15.7 7.3-8.45Q7.3-6.55 8.65-5.75 10-4.95 12.1-4.95L12.1-4.95Q13.3-4.95 14.5-5.2 15.7-5.45 16.4-5.7L16.4-5.7 17.9-0.3ZM40.25 0Q34.85 0.55 32.45 0.55L32.45 0.55Q27.2 0.55 24.1-1.4 21-3.35 21-8.45L21-8.45 21-12.6Q21-17.55 24.45-19.25L24.45-19.25Q26.1-20.05 28.2-20.05L28.2-20.05Q30.05-20.05 31.85-19.55 33.65-19.05 34.75-18.45L34.75-18.45Q34.75-20.3 33.25-20.98 31.75-21.65 29.4-21.65L29.4-21.65 29.85-25.45Q34.65-25.45 36.92-23.93 39.2-22.4 39.72-20.3 40.25-18.2 40.25-14.9L40.25-14.9 40.25 0ZM34.75-12.6Q33.85-13.25 32.22-13.83 30.6-14.4 29.25-14.4L29.25-14.4Q28.05-14.4 27.3-13.8 26.55-13.2 26.55-11.9L26.55-11.9 26.55-9.15Q26.55-4.6 31.9-4.6L31.9-4.6Q33.45-4.6 34.75-4.85L34.75-4.85 34.75-12.6ZM71.65 0L71.65-15.2Q71.65-17.9 70.92-19.1 70.2-20.3 68.59-20.3L68.59-20.3Q67.45-20.3 65.5-19.6L65.5-19.6 64.65-19.25Q64.75-18.95 64.8-18.55 64.84-18.15 64.84-17.8L64.84-17.8 64.84 0 59.34 0 59.34-15.05Q59.34-17.55 58.2-18.9 57.05-20.25 55.09-20.25L55.09-20.25Q53.34-20.25 51.45-19.15L51.45-19.15 51.45 0 45.95 0 45.95-25.05 50.8-25.05 51.45-24.7Q53.09-25.45 55.2-25.45L55.2-25.45Q56.9-25.45 58.5-24.88 60.09-24.3 61.3-23.05L61.3-23.05Q62-23.45 63.4-24.15L63.4-24.15Q66.34-25.5 69.09-25.5L69.09-25.5Q72.65-25.5 74.9-23.33 77.15-21.15 77.15-17.3L77.15-17.3 77.15 0 71.65 0ZM82.99 10.5L82.99-25.05 88.19-25.05 88.49-24.7Q89.04-24.95 90.17-25.2 91.29-25.45 92.34-25.45L92.34-25.45Q96.99-25.45 99.42-22.75 101.84-20.05 101.84-15.75L101.84-15.75 101.84-8.8Q101.84-4.25 99.29-1.83 96.74 0.6 92.54 0.6L92.54 0.6Q91.19 0.6 90.49 0.48 89.79 0.35 89.29 0.18 88.79 0 88.49-0.1L88.49-0.1 88.49 9.4 82.99 10.5ZM96.34-15.95Q96.34-17.95 95.47-19 94.59-20.05 92.54-20.05L92.54-20.05Q90.49-20.05 89.49-19.03 88.49-18 88.49-16.2L88.49-16.2 88.49-9.4Q88.49-7.4 89.37-6.15 90.24-4.9 92.54-4.9L92.54-4.9Q94.84-4.9 95.59-6.1 96.34-7.3 96.34-10.1L96.34-10.1 96.34-15.95ZM110.69-29.6Q109.49-29.6 108.59-30.5 107.69-31.4 107.69-32.6L107.69-32.6Q107.69-33.75 108.59-34.63 109.49-35.5 110.69-35.5L110.69-35.5Q111.84-35.5 112.72-34.63 113.59-33.75 113.59-32.6L113.59-32.6Q113.59-31.4 112.72-30.5 111.84-29.6 110.69-29.6L110.69-29.6ZM107.79 0L107.79-25.05 113.29-25.05 113.29 0 107.79 0ZM133.89-0.3Q130.79 0.5 127.89 0.5L127.89 0.5Q125.19 0.5 123.39-0.1L123.39-0.1Q120.44-1.1 119.11-3.18 117.79-5.25 117.79-9L117.79-9 117.79-15.4Q117.79-20.35 120.39-22.93 122.99-25.5 127.09-25.5L127.09-25.5Q130.34-25.5 133.79-23.9L133.79-23.9 132.29-19.15Q129.89-20.1 127.99-20.1L127.99-20.1Q125.74-20.1 124.51-18.85 123.29-17.6 123.29-15.7L123.29-15.7 123.29-8.45Q123.29-6.55 124.64-5.75 125.99-4.95 128.09-4.95L128.09-4.95Q129.29-4.95 130.49-5.2 131.69-5.45 132.39-5.7L132.39-5.7 133.89-0.3ZM150.34 0L142.84-12.7 142.14-12 142.14 0 136.64 0 136.64-35 142.14-35 142.14-19.1 149.59-26 153.64-22.15 147.09-16.6Q147.44-16.1 148.14-14.85L148.14-14.85Q153.49-5.95 157.24 0L157.24 0 150.34 0Z" opacity="1" transform="matrix(1,0,0,1,0,0)" fill="#000000" class="wordmark-text-0" data-fill-palette-color="primary" id="text-0"></path></svg></g></svg></g></svg></g></svg></g></svg></g></svg></g></svg></g><g><path d="M0 123.6c0-68.262 55.338-123.6 123.6-123.6 52.498 0 97.351 32.73 115.268 78.897l-3.506 0c-17.746-44.326-61.097-75.635-111.762-75.636-66.461 0-120.339 53.877-120.339 120.339 0 66.461 53.877 120.339 120.339 120.339 50.664 0 94.016-31.309 111.762-75.636l3.506 0c-17.917 46.167-62.77 78.897-115.268 78.897-68.262 0-123.6-55.338-123.6-123.6z" fill="#000000" stroke="transparent" data-fill-palette-color="tertiary"></path></g></svg></g><defs></defs></svg><rect width="395.52" height="247.2" fill="none" stroke="none" visibility="hidden"></rect></g></svg></g></svg>